<?xml version="1.0" encoding="UTF-8" standalone="no"?>
<svg width="132px" height="27px" viewBox="0 0 132 27" version="1.1" xmlns="http://www.w3.org/2000/svg" xmlns:xlink="http://www.w3.org/1999/xlink">
    <!-- Generator: sketchtool 3.6.1 (26313) - http://www.bohemiancoding.com/sketch -->
    <title>2D7FC25C-67D2-4FFA-B5B8-CC43B8DAB48A</title>
    <desc>Created with sketchtool.</desc>
    <defs></defs>
    <g id="Page-1" stroke="none" stroke-width="1" fill="none" fill-rule="evenodd">
        <g id="Contact-details" transform="translate(-14.000000, -11.000000)">
            <g id="Header---Not-Logged-in---Bli-kund-Overview">
                <g id="HEADER">
                    <g id="Logo" transform="translate(14.000000, 11.000000)">
                        <path d="M4.78322581,13.7206184 C5.53950538,12.6062763 6.14769892,11.7015395 6.63643011,10.9749079 L7.17767742,10.1708289 C7.70449462,9.39161842 8.10096774,8.80946053 8.40944086,8.40943421 C8.59655914,8.16998684 8.77113978,7.95659211 9.02307527,7.75811842 C9.1803871,7.63567105 9.36206452,7.53738158 9.53688172,7.47959211 C9.7471828,7.40830263 9.94849462,7.39314474 10.0802581,7.39314474 C10.2590968,7.39338158 10.4109677,7.41659211 10.557871,7.46419737 C10.7423871,7.52151316 10.9396774,7.63732895 11.0827957,7.77256579 C11.1677204,7.85119737 11.2434194,7.93906579 11.3115484,8.03901316 C11.3990753,8.16667105 11.4544301,8.28177632 11.4927527,8.36775 C11.5492903,8.49635526 11.5973118,8.62875 11.6493548,8.79903947 C11.7070753,8.98756579 11.7652688,9.20925 11.8378925,9.51809211 C11.9183226,9.85867105 12.0122366,10.2930395 12.1522796,10.9699342 C12.2961075,11.6664868 12.4709247,12.5356974 12.691871,13.6358289 L12.7957204,14.1516711 C13.0845591,15.5848026 13.2906022,16.6645658 13.4611613,17.5638553 L13.5387527,17.9716974 C13.5491613,18.0031974 13.5723441,18.0084079 13.5929247,17.9795132 C13.6766667,17.8554079 13.9304946,17.4615395 14.146,17.1271184 C14.146,17.1271184 15.8198925,14.5299079 16.2575269,13.8525395 C17.8561935,11.3789605 19.4863226,8.88975 20.7963871,6.88938158 C21.532086,5.76603947 22.1887742,4.76301316 22.728129,3.93382895 C20.3154624,1.59548684 17.030129,0.154065789 13.4072258,0.154065789 C6.00245161,0.154065789 0,6.16369737 0,13.5768553 C0,15.5279605 0.419182796,17.3798289 1.16694624,19.0524079 L4.78322581,13.7206184 Z M24.345886,5.82108158 C23.8938215,6.51455526 23.2267247,7.52705526 22.4574344,8.69397632 C21.1575419,10.6663974 19.539714,13.1207921 18.2362731,15.1377395 C17.6992839,15.9683447 17.2453269,16.6731868 16.8448323,17.2948974 L16.7653484,17.4185289 C16.4348753,17.9315289 16.1469828,18.37845 15.8997785,18.7592921 C15.3450473,19.6147658 14.9902086,20.15145 14.7023161,20.5367921 C14.5147247,20.7835816 14.3526817,20.9865553 14.1083161,21.1857395 C13.9519505,21.3105553 13.7707462,21.4097921 13.5956925,21.4678184 C13.4312839,21.5241868 13.2510258,21.5528447 13.0601226,21.5528447 L13.0582301,21.5528447 C12.9214989,21.5528447 12.6944022,21.5353184 12.4571333,21.4209237 C12.2648108,21.3316342 12.0798215,21.1802921 11.9492409,21.0059763 C11.8844237,20.9200026 11.8307247,20.8328447 11.7815204,20.7326605 C11.7238,20.61495 11.6859505,20.5086079 11.6566172,20.4197921 C11.6104882,20.2779237 11.5740581,20.1341605 11.5416495,20.0001079 C11.4964667,19.8063711 11.4477355,19.5756868 11.3885957,19.2730026 C11.3273269,18.9627395 11.2580151,18.5984763 11.1707247,18.1368711 L11.1068538,17.8012658 C10.9471763,16.9623711 10.7482301,15.9283184 10.4847032,14.6195289 L10.3574344,13.98645 C10.1438215,12.9232658 9.83747742,11.4164763 9.83747742,11.4164763 C9.83747742,11.4164763 9.82044516,11.3421079 9.7113914,10.8167921 C9.69838065,10.7618447 9.65035914,10.72845 9.60186452,10.8011605 C9.42207957,11.0702132 9.19332688,11.4015553 8.90117634,11.8356868 L8.49642366,12.4372658 C8.02732688,13.1345289 7.44349892,14.0020816 6.73263871,15.0501079 C5.65014409,16.6450026 3.90693978,19.1853711 2.44878925,21.3055816 C4.87588602,24.7487921 8.87775699,26.9999763 13.4071548,26.9999763 C20.8112194,26.9999763 26.8139075,20.9901079 26.8139075,13.5767132 C26.8139075,10.6865289 25.8981871,8.01163421 24.345886,5.82108158 Z M20.1594989,21.5033447 C19.2958215,21.5033447 18.595843,20.8022921 18.595843,19.9378184 C18.595843,19.0731079 19.2958215,18.3720553 20.1594989,18.3720553 C21.023886,18.3720553 21.7233914,19.0731079 21.7233914,19.9378184 C21.7233914,20.8022921 21.023886,21.5033447 20.1594989,21.5033447" id="Fill-1" fill="#00A9EC"></path>
                        <g id="Group" transform="translate(32.000000, 2.000000)" fill="#000000">
                            <path d="M32.5616022,19.4422868 L32.5616022,5.31039211 L36.0323978,5.31039211 L36.0323978,7.14662895 L36.3924409,6.68336579 C37.2561183,5.57186579 38.5910215,4.90823421 39.9635376,4.90823421 C40.3443978,4.90823421 40.7191075,4.95820789 41.0566774,5.05318158 L41.0566774,7.84176053 C40.8359677,7.77165526 40.5996452,7.73612895 40.3514946,7.73612895 C39.0499462,7.73612895 37.6729355,8.69131316 36.9443333,9.57899737 C36.3221828,10.3371289 36.0323978,11.2541816 36.0323978,12.4651553 L36.0323978,19.4422868 L32.5616022,19.4422868 Z" id="Fill-5"></path>
                            <path d="M10.5845957,19.4422868 L10.5845957,11.11255 C10.5845957,9.21449737 9.4741871,8.08144474 7.6145957,8.08144474 C6.60283226,8.08144474 5.76044516,8.45731316 5.11085376,9.19862895 C4.45889677,9.94278684 4.12842366,10.9344447 4.12842366,12.1463658 L4.12842366,19.4422868 L0.657391398,19.4422868 L0.657391398,5.34544474 L4.12842366,5.34544474 L4.12842366,7.48578684 L4.48752043,7.02891842 C4.99612258,6.38210263 5.66605806,5.86578684 6.47887527,5.49323421 C7.29689677,5.10457632 8.1750043,4.90823421 9.09214409,4.90823421 C10.6011548,4.90823421 11.8201441,5.32057632 12.7152839,6.13436579 C13.6045097,6.94199737 14.0553914,8.15297105 14.0553914,9.73365526 L14.0553914,19.4422868 L10.5845957,19.4422868 Z" id="Fill-7"></path>
                            <path d="M48.883828,7.93739737 C47.7246882,7.93739737 46.7228602,8.33695 45.9060215,9.12492368 C45.0875269,9.91455526 44.6723656,10.9384237 44.6723656,12.1681079 C44.6723656,13.3980289 45.0875269,14.4218974 45.9060215,15.2112921 C46.7226237,15.9992658 47.7244516,16.3988184 48.883828,16.3988184 C50.0432043,16.3988184 51.0452688,15.9992658 51.861871,15.2112921 C52.6893548,14.4273447 53.1094839,13.4030026 53.1094839,12.1681079 C53.1094839,10.9332132 52.6893548,9.90887105 51.8604516,9.12373947 C51.0450323,8.33695 50.0429677,7.93739737 48.883828,7.93739737 M48.883828,19.5303447 C47.4994839,19.5303447 46.2116559,19.2058711 45.055828,18.5659237 C43.8787097,17.9141342 42.9698495,17.0451605 42.2776774,15.9087921 C41.5850323,14.7575026 41.248172,13.5335026 41.248172,12.1681079 C41.248172,10.2046868 42.0645376,8.29455526 43.487914,6.92679211 C44.8954409,5.58816053 46.8624301,4.82008158 48.883828,4.82008158 C50.282129,4.82008158 51.6570108,5.18600263 52.859914,5.87829211 L53.1612903,6.05166053 L53.1612903,1.21345 L56.6318495,0.152160526 L56.6318495,19.4422395 L53.1612903,19.4422395 L53.1612903,18.2930816 L52.7924946,18.5102658 C52.7612688,18.5292132 52.7302796,18.5481605 52.6981075,18.5659237 C51.5254839,19.2148711 50.2781075,19.5303447 48.883828,19.5303447" id="Fill-9"></path>
                            <path d="M23.269157,8.22745789 C22.1100172,8.22745789 21.1081892,8.62701053 20.2913505,9.41498421 C19.4728559,10.2046158 19.0576946,11.2284842 19.0576946,12.4581684 C19.0576946,13.6880895 19.4728559,14.7119579 20.2913505,15.5013526 C21.1079527,16.2893263 22.1097806,16.6888789 23.269157,16.6888789 C24.4285333,16.6888789 25.4305978,16.2893263 26.2472,15.5013526 C27.0746839,14.7174053 27.4948129,13.6930632 27.4948129,12.4581684 C27.4948129,11.2232737 27.0746839,10.1989316 26.2457806,9.4138 C25.4303613,8.62701053 24.4282968,8.22745789 23.269157,8.22745789 M23.269157,19.8204053 C21.8848129,19.8204053 20.5969849,19.4959316 19.441157,18.8559842 C18.2640387,18.2041947 17.3551785,17.3352211 16.6630065,16.1988526 C15.9703613,15.0475632 15.6335011,13.8235632 15.6335011,12.4581684 C15.6335011,10.4947474 16.4498667,8.58461579 17.873243,7.21685263 C19.2807699,5.87822105 21.2477591,5.11014211 23.269157,5.11014211 C25.2957591,5.11014211 27.2575441,5.87798421 28.651114,7.21685263 C30.0839527,8.57964211 30.9050495,10.4897737 30.9050495,12.4581684 C30.9050495,13.8238 30.5681892,15.0475632 29.8748344,16.1998 C29.1978022,17.3113 28.2584258,18.2056158 27.0834366,18.8559842 C25.9108129,19.5049316 24.6634366,19.8204053 23.269157,19.8204053" id="Fill-11"></path>
                            <path d="M67.6589828,4.90818684 C66.7423161,4.90818684 65.863972,5.10452895 65.045714,5.49342368 C64.2328968,5.86550263 63.5629613,6.38229211 63.0543591,7.02887105 L62.6950258,7.48550263 L62.6950258,5.31058158 L59.2242301,5.31058158 L59.2242301,19.4422395 L62.6950258,19.4422395 L62.6950258,12.1465553 C62.6950258,10.9343974 63.0257355,9.94273947 63.6776925,9.19858158 C64.3275204,8.45726579 65.1699075,8.08139737 66.1814344,8.08139737 C68.0410258,8.08139737 69.1514344,9.21468684 69.1514344,11.1125026 L69.1514344,19.4422395 L72.6222301,19.4422395 L72.6222301,9.73360789 C72.6222301,8.15292368 72.1713484,6.94195 71.2821226,6.13431842 C70.3869828,5.32052895 69.1679935,4.90818684 67.6589828,4.90818684" id="Fill-13"></path>
                            <path d="M81.5941376,7.44798684 C82.5540946,7.44798684 83.3856,7.75493421 84.0642882,8.35888158 C84.7112774,8.92043421 85.1006538,9.65606579 85.2293419,10.5430395 L77.7330194,10.5430395 C78.2868043,8.63172368 79.7551269,7.44798684 81.5941376,7.44798684 M85.1456,5.60914474 C84.0439441,4.98080263 82.6063742,4.84888158 81.5941376,4.84888158 C79.5557075,4.84888158 77.8080086,5.56343421 76.4000086,6.97288158 C75.0017075,8.37261842 74.2927398,10.1321184 74.2927398,12.2023553 C74.2927398,13.6174868 74.635514,14.9165658 75.3120731,16.0638289 C76.0042452,17.2376184 76.9396,18.1601184 78.0918796,18.8052763 C79.2685247,19.4648816 80.5724387,19.7993026 81.9671914,19.7993026 C83.9497935,19.7993026 85.9842022,19.26475 87.7096645,18.2918026 L87.6782022,14.9888026 L87.5357935,14.9888026 C86.0442882,16.2563816 84.2629978,16.8991711 82.2397075,16.8991711 C79.7820946,16.8991711 78.0459871,15.5880132 77.5955785,13.3917763 L77.5459011,13.1497237 L88.3263742,13.1497237 C88.3672989,12.9844079 88.3658796,12.74875 88.3649333,12.5666184 C88.3646968,12.4934342 88.3642237,12.42475 88.3658796,12.3643553 C88.4042022,11.0643289 88.3374925,9.38298684 87.4761806,7.91125 C86.917428,6.95653947 86.1117075,6.16027632 85.1456,5.60914474" id="Fill-15"></path>
                            <path d="M99.6179097,16.1396895 C98.8377376,16.7019526 98.063243,16.9871105 97.3147699,16.9871105 C96.2008129,16.9871105 95.5356086,16.2408211 95.5356086,14.9902947 L95.5356086,8.21068947 L99.4660387,8.21068947 L99.4660387,5.31055789 L95.5356086,5.31055789 L95.5356086,1.08292632 L92.0501462,0.118505263 L92.0501462,5.31055789 L89.6403183,5.31055789 L89.6403183,8.21068947 L92.0501462,8.21068947 L92.0501462,15.1771632 C92.0501462,18.6289 94.2879957,19.8585842 96.3822538,19.8585842 C97.0460387,19.8585842 97.6104688,19.8071895 98.0594581,19.7058211 C98.489286,19.6084789 99.2048774,19.3792158 99.7960387,19.1151368 L99.7960387,16.1396895 L99.6179097,16.1396895 Z" id="Fill-17"></path>
                        </g>
                    </g>
                </g>
            </g>
        </g>
    </g>
</svg>